<svg width="15" height="15" viewBox="0 0 15 15" fill="none" xmlns="http://www.w3.org/2000/svg">
<path d="M14.2433 13.0097L11.5337 10.2989C13.5612 7.58945 13.0083 3.74936 10.2989 1.72186C7.58945 -0.305644 3.74936 0.24719 1.72186 2.95664C-0.305644 5.66609 0.24719 9.50618 2.95664 11.5337C5.1331 13.1623 8.12241 13.1623 10.2989 11.5337L13.0097 14.2445C13.3504 14.5852 13.9027 14.5852 14.2433 14.2445C14.584 13.9038 14.584 13.3515 14.2433 13.0109L14.2433 13.0097ZM6.65036 11.0105C4.24233 11.0105 2.29025 9.05839 2.29025 6.65036C2.29025 4.24233 4.24233 2.29025 6.65036 2.29025C9.05839 2.29025 11.0105 4.24233 11.0105 6.65036C11.0079 9.0573 9.05733 11.0079 6.65036 11.0105Z" fill="#CDB494"/>
</svg>
